<?xml version="1.0" standalone="no"?><!DOCTYPE svg PUBLIC "-//W3C//DTD SVG 1.1//EN" "http://www.w3.org/Graphics/SVG/1.1/DTD/svg11.dtd"><svg t="1741045033078" class="icon" viewBox="0 0 1024 1024" version="1.1" xmlns="http://www.w3.org/2000/svg" p-id="16083" xmlns:xlink="http://www.w3.org/1999/xlink" width="200" height="200"><path d="M292.864 225.877333c43.690667 9.216 78.762667 27.050667 105.216 53.504 26.453333 26.453333 44.288 61.525333 53.504 105.216 12.202667-40.746667 31.530667-74.325333 57.984-100.778666 26.453333-26.453333 60.032-45.781333 100.736-57.941334-38.954667-10.752-71.68-29.354667-98.133333-55.808-26.453333-26.453333-45.013333-60.757333-55.765334-102.912-12.458667 40.448-31.872 73.941333-58.325333 100.394667-26.453333 26.453333-61.525333 45.866667-105.216 58.325333z m-167.210667 203.093334c33.792 7.168 60.928 20.949333 81.408 41.429333s34.261333 47.616 41.386667 81.408c9.472-31.530667 24.405333-57.514667 44.885333-77.994667 20.48-20.48 46.464-35.413333 77.952-44.8-32.64-8.32-59.178667-22.741333-79.658666-43.178666-20.48-20.48-34.858667-47.018667-43.136-79.658667-9.642667 31.317333-24.661333 57.173333-45.141334 77.653333-20.48 20.48-46.378667 35.541333-77.653333 45.141334z m121.216-55.168l3.498667 5.333333a195.029333 195.029333 0 0 0 48 48l4.949333 3.242667-0.597333 0.426666c-6.826667 4.736-13.397333 9.898667-19.626667 15.402667l-9.002666 8.533333a210.176 210.176 0 0 0-16.512 18.602667l-6.4 8.533333-4.522667-6.826666a181.888 181.888 0 0 0-12.970667-16.469334l-7.168-7.594666a180.864 180.864 0 0 0-24.064-20.181334l-7.253333-4.778666 8.704-6.442667c3.242667-2.56 6.4-5.248 9.514667-7.978667l9.002666-8.533333a214.613333 214.613333 0 0 0 23.978667-28.501333l0.469333-0.768z m355.157334 2.261333a42.666667 42.666667 0 0 0-59.648-0.682667L64.128 831.658667a42.666667 42.666667 0 0 0-1.408 60.288l60.330667 60.373333a42.666667 42.666667 0 0 0 56.618666 3.285333l3.712-3.328 467.2-467.285333a42.666667 42.666667 0 0 0 0-60.373333L602.026667 376.064z m-30.293334 42.069333l36.650667 36.693334L153.258667 910.08 105.813333 862.592 571.690667 418.133333z m382.208 205.568l-2.346666-1.408a29.781333 29.781333 0 0 0-4.010667-1.621333l-4.266667-1.024-11.648-2.176c-34.56-7.466667-62.464-20.736-84.096-39.722667l-6.997333-6.528c-19.797333-19.797333-34.218667-46.634667-43.008-80.853333l-2.56-11.178667-2.432-13.098666a29.866667 29.866667 0 0 0-30.378667-24.448l-4.394666 0.426666a29.610667 29.610667 0 0 0-12.202667 5.290667l-1.92 1.706667-5.077333 5.717333-1.706667 2.56a30.848 30.848 0 0 0-1.834667 4.224l-1.237333 4.48c-8.234667 45.098667-24.661333 79.488-48.938667 103.765333-24.448 24.448-57.6 40.874667-100.096 49.194667l0.128 0.554667-0.768-0.512a29.866667 29.866667 0 0 0-23.338666 31.232l0.64 4.394666a29.994667 29.994667 0 0 0 5.589333 11.946667l1.92 2.090667 5.376 4.522666 2.645333 1.578667c1.28 0.682667 2.56 1.28 3.968 1.706667l4.266667 1.066666c42.666667 7.978667 75.946667 24.234667 100.309333 48.64 24.490667 24.490667 40.746667 56.32 48.725334 96.085334l0.426666-0.085334-0.384 0.554667a29.866667 29.866667 0 0 0 31.146667 23.381333l4.437333-0.597333a29.866667 29.866667 0 0 0 11.648-5.418667l2.304-2.090666 4.693334-5.546667 1.28-1.962667c0.64-1.28 1.237333-2.56 1.706666-3.925333l1.194667-4.181333c7.68-36.864 23.637333-67.157333 47.872-91.392 25.173333-25.173333 59.776-42.837333 104.490667-52.906667l-0.128-0.512 0.725333 0.426667a29.866667 29.866667 0 0 0 8.106667-3.285334l1.450666-1.109333 5.973334-5.333333 1.706666-2.133334a29.824 29.824 0 0 0 5.248-19.968l-0.768-4.394666a29.824 29.824 0 0 0-5.802666-11.562667l-2.048-2.176-5.589334-4.394667z m-85.888 26.837334l-6.912 3.328a218.709333 218.709333 0 0 0-92.928 88.618666l-4.096 7.808-2.773333-5.717333a216.746667 216.746667 0 0 0-31.872-46.378667l-7.722667-8.149333a209.066667 209.066667 0 0 0-56.021333-39.808l-4.906667-2.261333 4.522667-2.133334a214.485333 214.485333 0 0 0 47.530667-32.042666l8.234666-7.808c16.085333-16.085333 29.354667-35.072 39.850667-56.832l1.706667-3.626667 4.394666 9.514667c8.32 16.64 18.346667 31.573333 30.08 44.714666l7.253334 7.68c17.578667 17.578667 38.4 31.744 62.293333 42.496l1.365333 0.597334z" p-id="16084"></path></svg>