<!-- This Source Code Form is subject to the terms of the Mozilla Public
   - License, v. 2.0. If a copy of the MPL was not distributed with this
   - file, You can obtain one at http://mozilla.org/MPL/2.0/. -->

<svg xmlns="http://www.w3.org/2000/svg" width="16" height="16" viewBox="0 0 1024 1024"><path d="M922.584615 811.323077h-31.547077v-630.153846a31.507692 31.507692 0 0 0-31.507692-31.507693H165.533538v-78.76923a31.507692 31.507692 0 0 0-63.094153 0v78.76923H70.892308a31.507692 31.507692 0 1 0 0 63.015385h31.507692v630.153846a31.507692 31.507692 0 0 0 31.586462 31.507693h693.956923v78.76923a31.507692 31.507692 0 0 0 63.054769 0v-78.76923h31.507692a31.507692 31.507692 0 1 0 0-63.015385z m-757.011692 0V212.676923h662.370462v598.646154H165.572923z" p-id="5273"></path><path d="M270.099692 377.028923c0 34.934154 28.041846 63.251692 62.621539 63.251692 34.579692 0 62.621538-28.317538 62.621538-63.251692 0-34.894769-28.041846-63.212308-62.621538-63.212308-34.579692 0-62.621538 28.317538-62.621539 63.212308z m499.987693 340.834462l-92.947693-250.761847a16.817231 16.817231 0 0 0-14.336-11.067076 16.935385 16.935385 0 0 0-16.384 7.719384l-105.156923 162.146462a17.289846 17.289846 0 0 1-22.173538 6.06523l-180.105846-88.339692a17.250462 17.250462 0 0 0-22.173539 6.025846L209.92 714.555077a16.384 16.384 0 0 0-0.590769 17.329231c3.111385 5.592615 8.664615 8.782769 15.123692 8.782769h529.526154a16.738462 16.738462 0 0 0 14.099692-7.246769 16.344615 16.344615 0 0 0 2.048-15.556923z"></path></svg>